<svg xmlns="http://www.w3.org/2000/svg" width="16" height="16" viewBox="0 0 16 16"><defs><style>.a{fill:none;}.b{fill:#ffff;fill-rule:evenodd;}</style></defs><g transform="translate(-812 -1060)"><rect class="a" width="16" height="16" transform="translate(812 1060)"/><g transform="translate(813.334 1061.334)"><path class="b" d="M8.666,2a6.666,6.666,0,1,0,6.666,6.666A6.66,6.66,0,0,0,8.666,2Zm0,12A5.333,5.333,0,1,1,14,8.666,5.34,5.34,0,0,1,8.666,14Zm0-6.273,2.393-2.393.94.94L9.606,8.666,12,11.059l-.94.94L8.666,9.606,6.273,12l-.94-.94L7.726,8.666,5.333,6.273l.94-.94Z" transform="translate(-2 -2)"/></g></g></svg>